# xmcd
#
# Track frame offsets: 
#        150
#        23260
#        41111
#        63197
#        81172
#        101340
#        126121
#        147882
#        163716
#        186584
#        207948
#        231795
#        251208
#        271336
#        292901
#        313903
#
# Disc length: 4443 seconds
#
# Revision: 0
# Processed by: cddbd v1.5.1PL0 Copyright (c) Steve Scherf et al.
# Submitted via: ExactAudioCopy v0.95a4
#
DISCID=e3115910
DTITLE=Dennis Taylor - Smile:Very Best of Dennis Taylor
DYEAR=2004
DGENRE=Soul
TTITLE0=Smile
TTITLE1=Enough Is Enough
TTITLE2=Steppin'
TTITLE3=Bad As You Wanna Be
TTITLE4=Could Be You
TTITLE5=Angel
TTITLE6=Don't Wanna Give Up
TTITLE7=In The Mood
TTITLE8=Want
TTITLE9=Love Need And Want You
TTITLE10=Rock U Good
TTITLE11=Fills Me Up
TTITLE12=Lover For Life
TTITLE13=At The Place
TTITLE14=Over And Over
TTITLE15=Feelin' Good
EXTD=
EXTT0=
EXTT1=
EXTT2=
EXTT3=
EXTT4=
EXTT5=
EXTT6=
EXTT7=
EXTT8=
EXTT9=
EXTT10=
EXTT11=
EXTT12=
EXTT13=
EXTT14=
EXTT15=
PLAYORDER=
